<?xml version="1.0" standalone="no"?>
<!DOCTYPE svg PUBLIC "-//W3C//DTD SVG 20010904//EN"
 "http://www.w3.org/TR/2001/REC-SVG-20010904/DTD/svg10.dtd">
<svg version="1.0" xmlns="http://www.w3.org/2000/svg"
 width="225.000000pt" height="225.000000pt" viewBox="0 0 225.000000 225.000000"
 preserveAspectRatio="xMidYMid meet">
<metadata>
Created by potrace 1.11, written by Peter Selinger 2001-2013
</metadata>
<g transform="translate(0.000000,225.000000) scale(0.100000,-0.100000)"
fill="#000000" stroke="none">
<path d="M0 1125 l0 -1125 1125 0 1125 0 0 1125 0 1125 -1125 0 -1125 0 0
-1125z m1220 865 c234 -28 440 -143 584 -324 71 -90 118 -179 152 -291 25 -82
28 -104 28 -245 0 -140 -3 -164 -27 -243 -68 -220 -202 -393 -395 -506 -280
-165 -644 -154 -915 26 -260 172 -401 455 -384 771 23 452 378 796 847 821 14
0 64 -4 110 -9z"/>
<path d="M955 1964 c-324 -72 -571 -310 -656 -629 -30 -112 -30 -298 0 -410
101 -381 438 -645 825 -645 389 0 725 262 827 645 30 112 30 298 0 410 -80
299 -306 531 -601 615 -101 29 -296 36 -395 14z m375 -39 c158 -41 328 -150
433 -280 62 -76 141 -239 161 -332 35 -159 15 -374 -47 -515 -99 -222 -305
-397 -547 -464 -91 -25 -319 -25 -410 0 -243 67 -448 241 -547 465 -83 188
-86 447 -6 641 105 257 323 436 603 496 83 17 272 12 360 -11z"/>
<path d="M964 1885 c-385 -84 -657 -462 -606 -843 25 -188 95 -327 232 -464
75 -74 101 -93 191 -136 125 -60 216 -82 344 -82 128 0 219 21 340 80 296 142
472 470 426 790 -48 327 -291 588 -609 655 -83 18 -237 18 -318 0z m381 -88
c111 -37 198 -90 280 -172 129 -129 194 -279 201 -465 5 -125 -13 -195 -58
-220 -25 -13 -29 -13 -50 8 -21 19 -26 20 -38 8 -33 -32 -76 -23 -91 18 -12
32 -14 34 -33 20 -25 -17 -58 -18 -74 -2 -18 18 -14 102 9 170 36 106 109 202
140 183 6 -4 -8 -26 -31 -52 -56 -59 -91 -140 -98 -219 -4 -56 -3 -64 12 -64
30 0 59 45 72 109 19 91 43 136 74 136 22 0 25 -4 23 -34 -1 -19 -17 -66 -37
-105 -38 -74 -46 -126 -22 -145 10 -9 19 -7 36 7 19 15 23 30 26 84 4 88 26
141 56 136 33 -4 34 -43 4 -129 -19 -55 -23 -77 -15 -91 10 -19 12 -19 30 -2
60 54 50 274 -20 428 -113 249 -342 395 -621 397 -103 0 -160 -9 -242 -42
-131 -52 -285 -190 -349 -314 -19 -36 -37 -65 -41 -65 -34 0 13 101 90 193 92
111 242 210 369 242 95 24 298 15 398 -18z m152 -229 c17 -14 17 -39 0 -32 -8
3 -19 -2 -26 -10 -15 -18 -201 -560 -201 -586 0 -26 30 -40 82 -40 51 0 89 17
103 47 8 16 15 19 28 12 20 -12 21 -33 6 -78 l-11 -31 -164 0 c-153 0 -164 1
-174 20 -8 16 -8 20 3 20 8 0 21 8 29 18 8 9 59 147 112 305 109 321 109 317
27 317 -60 0 -84 -17 -83 -59 1 -37 -18 -41 -48 -11 -21 21 -23 34 -14 90 l6
35 156 -3 c90 -2 162 -8 169 -14z m-411 -37 c8 -50 -4 -76 -32 -76 -14 0 -18
6 -16 21 4 33 -20 45 -84 42 -77 -4 -84 -18 -84 -160 l0 -107 53 6 c42 4 57 2
70 -12 24 -24 21 -32 -16 -38 -18 -3 -50 -12 -71 -21 l-38 -16 3 -113 c5 -137
10 -147 83 -147 54 0 96 20 96 46 0 18 14 18 30 -1 11 -13 9 -92 -2 -98 -1 -1
-72 0 -157 3 -111 4 -156 9 -159 18 -2 6 3 12 12 12 23 0 36 62 36 170 l0 95
-30 17 c-38 22 -38 34 0 42 l30 6 0 117 c0 149 -7 194 -32 201 -20 5 -24 28
-5 35 6 2 78 3 159 3 l148 -1 6 -44z m-442 -221 c89 -79 96 -248 16 -418 -23
-50 -33 -63 -42 -54 -9 9 -7 21 6 49 59 122 76 224 51 308 -32 110 -114 150
-174 86 -122 -131 -10 -513 199 -678 146 -115 338 -168 514 -144 212 30 410
167 506 353 32 60 45 77 53 69 9 -9 3 -29 -23 -79 -133 -256 -429 -412 -710
-372 -245 34 -435 167 -539 376 -97 195 -107 418 -24 496 34 31 47 36 95 37
28 1 46 -7 72 -29z m-99 -103 c-21 -50 -19 -133 5 -209 24 -75 23 -68 7 -68
-50 0 -74 242 -32 307 25 37 39 15 20 -30z m293 -439 c-3 -7 -17 -14 -31 -16
-31 -4 -37 -22 -7 -22 11 0 20 -7 20 -15 0 -8 -9 -15 -20 -15 -15 0 -20 -7
-20 -25 0 -16 -6 -25 -15 -25 -12 0 -15 14 -15 65 l0 65 46 0 c32 0 44 -4 42
-12z m215 -19 c32 -43 2 -99 -54 -99 -60 0 -90 69 -48 111 28 28 76 22 102
-12z m217 9 c39 -42 8 -108 -49 -108 -32 0 -44 8 -60 38 -35 66 57 125 109 70z
m210 2 c45 -45 10 -110 -60 -110 l-40 0 0 65 0 65 40 0 c27 0 47 -7 60 -20z
m-575 -160 l-20 -9 20 -1 20 -2 -20 -6 -20 -5 20 -8 c19 -7 19 -8 -2 -8 -18
-1 -23 5 -23 24 0 19 5 25 23 24 21 0 21 -1 2 -9z m70 0 c-17 -7 -17 -9 -2 -9
9 -1 17 -8 17 -16 0 -9 -9 -15 -22 -14 -21 0 -21 1 -4 8 18 7 18 8 2 14 -21 8
-12 27 12 26 14 0 13 -2 -3 -9z m78 3 c-7 -2 -19 -2 -25 0 -7 3 -2 5 12 5 14
0 19 -2 13 -5z m143 -5 c4 -6 2 -14 -5 -16 -11 -4 -11 -6 0 -13 11 -7 10 -9
-3 -9 -20 0 -24 15 -7 26 8 4 7 9 -2 15 -10 6 -10 9 -2 9 6 0 15 -5 19 -12z
m64 -13 c0 -16 -6 -25 -15 -25 -8 0 -15 5 -15 11 0 5 5 7 10 4 6 -3 10 1 10
10 0 9 -4 13 -10 10 -5 -3 -10 -1 -10 4 0 6 7 11 15 11 9 0 15 -9 15 -25z
m105 0 c0 -10 -7 -20 -15 -22 -12 -4 -12 -3 -2 5 11 7 11 10 -3 16 -9 3 -13
11 -10 16 10 16 30 6 30 -15z"/>
<path d="M1634 1184 c-8 -20 -13 -39 -10 -42 3 -3 6 -3 6 0 0 3 7 22 15 42 8
20 13 36 10 36 -3 0 -13 -16 -21 -36z"/>
<path d="M1725 1130 c-4 -17 -5 -34 -2 -36 2 -3 7 10 11 27 8 42 0 50 -9 9z"/>
<path d="M969 734 c-9 -11 -10 -20 -2 -32 15 -24 44 -27 59 -7 28 38 -27 75
-57 39z"/>
<path d="M1189 734 c-17 -21 0 -49 31 -49 31 0 48 28 31 49 -8 9 -21 16 -31
16 -10 0 -23 -7 -31 -16z"/>
<path d="M1410 716 c0 -29 4 -36 19 -36 10 0 24 7 32 16 16 20 1 48 -30 52
-18 3 -21 -1 -21 -32z"/>
</g>
</svg>
